<?xml version="1.0" encoding="UTF-8"?>
<svg width="56mm" height="56mm" version="1.1" viewBox="0 0 56 56" xmlns="http://www.w3.org/2000/svg" stroke="#111" stroke-width="1" fill="none">
  <g transform="scale(.5)">
    <g stroke="none">
      <rect x="1" y="1" width="110" height="110" fill="white" />
      <rect x="1.5" y="1.5" width="54" height="54" fill="red" />
    </g>

    <g fill="none" stroke="#111" stroke-width="1">
      <path d="m0.5 1 h110.5 v11 H1 v11 h110 v11 H1 v11 h110 v11 H1 v11 h110 v11 H1 v11 h110 v11 H1 v11 h110" />
      <path d="m1 1 v110 h11 V1 h11 v110 h11 V1 h11 v110 h11 V1 h11 v110 h11 V1 h11 v110 h11 V1 h11 v110.5" />
    </g>

    <g font-family="Arial, sans-serif" font-size="8" stroke="none" fill="#111" font-weight="800">
      <text x="15" y="9">S</text>
      <text x="3.2" y="20">S'</text>
    </g>
  </g>
</svg>
