<?xml version="1.0" encoding="UTF-8"?>
<svg width="56mm" height="56mm" version="1.1" viewBox="0 0 56 56" xmlns="http://www.w3.org/2000/svg" stroke="#111" stroke-width="1" fill="none">
  <defs>
    <marker id="arrow" overflow="visible" viewBox="0 0 7 7" orient="auto">
      <path id="arrowPath" d="m-1.5 -3.4 3 3.5 -3 3.5" fill="#111" />
    </marker>
  </defs>
  <g transform="scale(.5)">
    <rect x="1" y="1" width="110" height="110" fill="white" />

    <g fill="red" stroke="none">
      <rect x="1.5" y="1.5" width="54" height="54" />
      <rect x="56.5" y="1.5" width="54" height="54" opacity=".5"/>
      <rect x="56.5" y="56.5" width="54" height="54" opacity=".35"/>
      <rect x="1.5" y="56.5" width="54" height="54" opacity=".2"/>
    </g>

    <g stroke="#111">
      <g fill="none" stroke-width="1">
        <path d="m0.5 1 h110.5 v11 H1 v11 h110 v11 H1 v11 h110 v11 H1 v11 h110 v11 H1 v11 h110 v11 H1 v11 h110" />
        <path d="m1 1 v110 h11 V1 h11 v110 h11 V1 h11 v110 h11 V1 h11 v110 h11 V1 h11 v110 h11 V1 h11 v110.5" />
      </g>

      <g stroke-width="3" marker-end="url(#arrow)" fill="none" >
        <path d="m29 25 c0-25 55-24 55 -2" />
        <path d="m29 25 c0-25 55-24 55 -2" transform="translate(112 0) rotate(90)"/>
        <path d="m29 25 c0-25 55-24 55 -2" transform="translate(112 112) rotate(180)"/>
      </g>

      <g fill="white" stroke-width="1">
        <circle cx="56" cy="7" r="6" />
        <circle cx="105" cy="56" r="6" />
        <circle cx="56" cy="105" r="6" />
      </g>
    </g>

    <g font-family="Arial, sans-serif" font-size="11" stroke="none" fill="#111">
      <text x="52.7" y="11">1</text>
      <text x="102" y="60">2</text>
      <text x="53" y="109">3</text>
    </g>
  </g>
</svg>
