<?xml version="1.0" encoding="UTF-8"?>
<svg width="28mm" height="28mm" version="1.1" viewBox="0 0 28.5 28.5" xmlns="http://www.w3.org/2000/svg" stroke="#111" stroke-width="1" fill="none">
  <defs>
    <marker id="arrow" overflow="visible" viewBox="0 0 7 7" orient="auto" stroke="none">
      <path id="arrowPath" d="m-1.5 -3.4 5 3.5 -5 3.5" fill="#111" />
    </marker>
  </defs>
  <g transform="scale(.5)">
    <rect x="1" y="1" width="55" height="55" fill="white" />

    <g fill="red" stroke="none">
      <rect x="1.5" y="1.5" width="32" height="21" />
      <rect x="34.5" y="1.5" width="21" height="32" opacity=".5"/>
      <rect x="23.5" y="34.5" width="32" height="21" opacity=".35"/>
      <rect x="1.5" y="34.5" width="21" height="21" opacity=".2"/>
    </g>

    <g stroke="#111">
      <g fill="none" stroke="#111" stroke-width="1">
        <path d="m0.5 1 h55.5 v11 H1 v11 h55 v11 H1 v11 h55 v11 H1" />
        <path d="m1 1 v55 h11 V1 h11 v55 h11 V1 h11 v55 h11 V1" />
      </g>

      <g stroke-width="2" marker-end="url(#arrow)" fill="none" >
        <path d="m18 12 c0-10 27-10 27 3" />
        <path d="m18 12 c0-10 27-10 27 3" transform="translate(57 0) rotate(90)"/>
        <path d="m18 12 c0-10 27-10 27 3" transform="translate(57 57) rotate(180)"/>
      </g>

      <g fill="white" stroke-width="1">
        <circle cx="32.5" cy="6.5" r="5" />
        <circle cx="50.5" cy="32.5" r="5" />
        <circle cx="24.5" cy="50.5" r="5" />
      </g>
    </g>

    <g font-family="Arial, sans-serif" font-size="10" stroke="none" fill="#111">
      <text x="29.5" y="10">1</text>
      <text x="48" y="36">2</text>
      <text x="21.7" y="54">3</text>
      <text x="4" y="32.3" fill="red">×</text>
      <text x="15" y="32.3" fill="red">×</text>
    </g>
  </g>
</svg>
